<svg width="274" height="94" viewBox="0 0 274 94" fill="none" xmlns="http://www.w3.org/2000/svg">
<ellipse cx="44.3014" cy="40.4086" rx="34.6576" ry="33.4315" fill="#FCB933"/>
<path d="M35.2441 62.3558L29.8994 58.0614C16.5766 47.3569 19.7423 26.6833 35.593 20.7783V20.7783C36.7885 20.333 38.0243 19.9922 39.2843 19.7606V19.7606C58.9724 16.1428 73.2756 38.3822 61.3674 54.0967L60.2901 55.5183L78.3562 72.6772" stroke="black" stroke-width="10"/>
<circle cx="85.5" cy="79.5" r="7.5" fill="#FCB933"/>
<path d="M91.9183 44.9955C91.577 44.9955 91.257 44.8675 90.9583 44.6115C90.7023 44.3128 90.5743 43.9715 90.5743 43.5875C90.5743 42.6061 91.001 41.6888 91.8543 40.8355C92.1103 40.7075 92.6223 40.4941 93.3903 40.1955C94.1583 39.8968 94.841 39.7475 95.4383 39.7475C97.0596 39.7475 98.3823 40.1955 99.4063 41.0915C100.43 41.9448 100.942 43.1821 100.942 44.8035C100.942 45.2728 100.857 46.2755 100.686 47.8115C100.516 49.6035 100.43 50.9901 100.43 51.9715C100.43 54.9581 100.836 57.3688 101.646 59.2035C101.945 59.8008 102.414 60.2701 103.054 60.6115C103.694 60.9528 104.27 61.1235 104.782 61.1235C106.02 61.1235 107.022 60.9101 107.79 60.4835C108.558 60.0568 109.39 59.3741 110.286 58.4355C111.182 57.4968 111.758 56.4301 112.014 55.2355C112.313 54.0408 112.526 52.3981 112.654 50.3075C112.74 48.9421 112.825 47.9395 112.91 47.2995C113.124 45.2515 113.23 43.5021 113.23 42.0515C113.23 41.1128 113.486 40.3448 113.998 39.7475C114.51 39.1075 115.214 38.7875 116.11 38.7875C116.622 38.7875 117.198 38.9581 117.838 39.2995C118.521 39.5981 118.969 39.9608 119.182 40.3875C119.438 40.8141 119.566 41.5181 119.566 42.4995C119.566 43.0115 119.502 43.5021 119.374 43.9715C119.076 45.0381 118.926 46.3181 118.926 47.8115L118.99 51.1395C118.99 54.1688 119.204 56.4088 119.63 57.8595C119.844 58.5421 120.142 59.2461 120.526 59.9715C120.91 60.6541 121.273 61.2301 121.614 61.6995C122.468 62.6381 123.022 63.2995 123.278 63.6835C123.534 64.0248 123.662 64.3661 123.662 64.7075C123.662 65.2195 123.406 65.7101 122.894 66.1795C122.425 66.6061 121.913 66.8195 121.358 66.8195C119.78 66.8195 118.414 66.2861 117.262 65.2195C116.11 64.1528 115.257 62.7661 114.702 61.0595C113.252 62.7235 111.908 64.0675 110.67 65.0915C109.817 65.6888 108.772 66.1368 107.534 66.4355C106.297 66.6915 105.06 66.8195 103.822 66.8195C102.158 66.8195 100.473 66.1368 98.7663 64.7715C97.0596 63.4061 95.9076 61.8275 95.3103 60.0355C95.2676 59.9501 95.1396 59.6088 94.9263 59.0115C94.7556 58.4141 94.6703 57.5181 94.6703 56.3235C94.6703 54.7448 94.7556 52.7608 94.9263 50.3715C95.0543 48.8355 95.1183 47.4275 95.1183 46.1475C95.1183 45.7635 94.969 45.4435 94.6703 45.1875C94.4143 44.9315 94.1156 44.8035 93.7743 44.8035C93.5183 44.8035 93.2196 44.8461 92.8783 44.9315C92.5796 44.9741 92.2596 44.9955 91.9183 44.9955ZM131.773 25.4755C133.267 25.6035 134.568 26.0088 135.677 26.6915C136.787 27.3315 137.341 28.3128 137.341 29.6355C137.341 30.6168 136.872 31.4061 135.933 32.0035C135.037 32.5581 133.949 32.8355 132.669 32.8355C131.432 32.8355 130.579 32.5155 130.109 31.8755C129.64 31.2355 129.405 30.5741 129.405 29.8915C129.405 28.6115 129.533 27.5448 129.789 26.6915C130.088 25.8381 130.749 25.4328 131.773 25.4755ZM136.893 53.8275V55.6835C136.893 57.3475 136.936 58.9261 137.021 60.4195C137.149 61.8701 137.299 63.3421 137.469 64.8355C137.469 65.3475 137.171 65.8168 136.573 66.2435C135.976 66.6275 135.421 66.8195 134.909 66.8195C134.099 66.8195 133.267 66.6701 132.413 66.3715C131.603 66.0301 131.112 65.6248 130.941 65.1555C130.685 63.7901 130.557 62.5741 130.557 61.5075C130.557 58.0088 130.451 54.0835 130.237 49.7315C130.067 45.8915 129.981 43.2035 129.981 41.6675C129.981 40.8995 130.365 40.2381 131.133 39.6835C131.901 39.1288 132.712 38.8515 133.565 38.8515C134.803 38.8515 135.656 39.1288 136.125 39.6835C136.637 40.2381 136.893 41.1128 136.893 42.3075V53.8275ZM167.028 44.6755C166.132 46.2115 164.916 47.7901 163.38 49.4115C161.844 51.0328 159.882 52.9528 157.492 55.1715C155.231 57.3048 153.972 58.5208 153.716 58.8195L151.54 60.8035C152.394 60.9741 153.994 61.0595 156.34 61.0595C157.279 61.0595 158.644 60.8888 160.436 60.5475C162.143 60.2061 163.402 60.0355 164.212 60.0355C164.895 60.0355 165.663 60.1421 166.516 60.3555C167.412 60.5688 168.244 60.8888 169.012 61.3155C169.396 61.4861 169.716 61.8275 169.972 62.3395C170.228 62.8088 170.356 63.2568 170.356 63.6835C170.356 64.2381 170.164 64.8568 169.78 65.5395C169.396 66.2221 168.948 66.5635 168.436 66.5635C167.967 66.5635 167.348 66.4781 166.58 66.3075C165.428 66.0941 164.618 65.9875 164.148 65.9875C162.655 65.9875 160.671 66.0941 158.196 66.3075C154.783 66.5635 152.266 66.6915 150.644 66.6915C148.596 66.6915 146.975 66.4355 145.78 65.9235C144.628 65.4115 144.052 64.4515 144.052 63.0435C144.052 61.9768 144.586 60.7608 145.652 59.3955C146.719 57.9875 148.02 56.5155 149.556 54.9795L150.452 54.0195C151.135 53.3368 152.287 52.3128 153.908 50.9475C155.53 49.5395 156.767 48.4301 157.62 47.6195C158.474 46.7661 159.178 45.8701 159.732 44.9315L149.492 44.9955C147.828 44.9955 146.591 44.8035 145.78 44.4195C145.012 44.0355 144.628 43.3101 144.628 42.2435C144.628 41.6461 144.842 41.0915 145.268 40.5795C145.695 40.0248 146.25 39.6835 146.932 39.5555C148.468 39.3421 151.604 39.2355 156.34 39.2355C161.076 39.2355 164.34 39.4701 166.132 39.9395C166.602 40.1101 166.964 40.4301 167.22 40.8995C167.519 41.3261 167.668 41.7741 167.668 42.2435C167.668 43.0115 167.455 43.8221 167.028 44.6755ZM212.716 26.1155C213.313 26.1155 214.038 26.5208 214.892 27.3315C215.788 28.0995 216.236 28.7608 216.236 29.3155C216.236 31.9181 216.15 35.4808 215.98 40.0035C215.937 41.1128 215.894 42.4568 215.852 44.0355C215.809 45.5715 215.788 47.3635 215.788 49.4115C215.788 55.8968 216.172 60.6755 216.94 63.7475C216.897 64.7715 216.492 65.5181 215.724 65.9875C214.956 66.4141 214.188 66.6275 213.42 66.6275C211.713 66.6275 210.582 66.0301 210.028 64.8355C209.516 63.6408 209.26 61.9341 209.26 59.7155C209.26 51.4808 209.345 43.9075 209.516 36.9955C204.609 42.4568 200.79 47.0435 198.06 50.7555C198.06 50.7555 197.676 51.0115 196.908 51.5235C196.182 52.1635 195.585 52.4835 195.116 52.4835C194.006 52.4835 193.089 52.2061 192.364 51.6515C191.638 51.0968 190.934 50.2861 190.252 49.2195L187.18 44.8675C185.046 41.8808 183.489 39.6195 182.508 38.0835C182.508 42.0088 182.7 47.3421 183.084 54.0835C183.382 57.9661 183.532 60.8888 183.532 62.8515C183.532 63.8755 183.276 64.7501 182.764 65.4755C182.252 66.1581 181.441 66.4995 180.332 66.4995C179.222 66.4995 178.305 66.2861 177.58 65.8595C176.897 65.4328 176.534 64.7928 176.492 63.9395C176.534 63.2141 176.556 62.0195 176.556 60.3555C176.556 57.0275 176.449 52.9741 176.236 48.1955L176.108 44.7395L175.98 40.2595C175.937 38.9368 175.894 37.4008 175.852 35.6515C175.809 33.8595 175.788 31.9181 175.788 29.8275C175.788 27.2675 177.174 25.9875 179.948 25.9875C180.801 25.9875 181.654 26.2008 182.508 26.6275C183.404 27.0541 184.065 27.6728 184.492 28.4835C184.833 29.9768 186.092 32.4515 188.268 35.9075C190.444 39.3635 192.577 42.6061 194.668 45.6355C196.545 43.2461 198.081 41.4541 199.276 40.2595C201.324 38.1688 203.009 36.2275 204.332 34.4355C205.697 32.6435 207.169 30.4888 208.748 27.9715C209.132 27.4595 209.686 27.0328 210.412 26.6915C211.137 26.3075 211.905 26.1155 212.716 26.1155ZM224.372 52.0995C224.372 50.5635 224.65 49.1341 225.204 47.8115C225.759 46.4461 226.57 45.0381 227.636 43.5875C228.703 42.1368 230.175 41.0061 232.052 40.1955C233.93 39.3421 235.978 38.9155 238.196 38.9155C239.903 38.9155 241.546 39.2781 243.124 40.0035C244.746 40.6861 246.196 41.5395 247.476 42.5635C247.647 42.8621 247.946 43.4168 248.372 44.2275C248.799 44.9955 249.098 45.6995 249.268 46.3395C249.482 46.9795 249.588 47.6408 249.588 48.3235C249.588 51.1821 248.543 53.1021 246.452 54.0835C244.362 55.0221 241.716 55.4915 238.516 55.4915C235.316 55.4915 232.714 55.2781 230.708 54.8515C230.794 55.6621 231.007 56.4728 231.348 57.2835C231.69 58.0941 232.095 58.7128 232.564 59.1395C233.418 59.9501 234.25 60.4835 235.06 60.7395C235.914 60.9528 237.044 61.0595 238.452 61.0595C240.586 61.0595 242.25 60.6541 243.444 59.8435C244.554 59.1181 245.407 58.7555 246.004 58.7555C246.815 58.7555 247.434 59.0115 247.86 59.5235C248.287 59.9928 248.5 60.6115 248.5 61.3795C248.5 63.0008 247.455 64.3235 245.364 65.3475C243.316 66.3715 240.991 66.8835 238.388 66.8835C236.34 66.8835 234.314 66.5208 232.308 65.7955C230.303 65.0701 228.703 64.0461 227.508 62.7235C226.698 61.3581 225.972 59.6941 225.332 57.7315C224.692 55.7688 224.372 53.8915 224.372 52.0995ZM238.452 44.1635C237.514 44.1635 236.532 44.3341 235.508 44.6755C234.527 44.9741 233.759 45.4435 233.204 46.0835C232.522 46.8088 232.01 47.4701 231.668 48.0675C231.37 48.6648 231.178 49.4115 231.092 50.3075C231.562 50.3075 232.01 50.3288 232.436 50.3715C232.863 50.4141 233.268 50.4568 233.652 50.4995C235.53 50.6701 236.938 50.7555 237.876 50.7555C239.754 50.7555 241.183 50.4781 242.164 49.9235C243.188 49.3688 243.7 48.6221 243.7 47.6835C243.7 46.7875 243.124 45.9768 241.972 45.2515C240.863 44.5261 239.69 44.1635 238.452 44.1635Z" fill="white"/>
</svg>
