<svg width="442" height="529" viewBox="0 0 442 529" fill="none" xmlns="http://www.w3.org/2000/svg">
<path d="M394.813 411.158C387.729 402.823 377.931 397.803 371.121 395.888C364.745 394.092 355.078 392.457 345.236 394.857C339.124 396.349 333.771 399.228 329.326 403.419C324.061 408.382 320.041 415.225 317.378 423.759C316.979 425.039 317.111 426.394 317.752 427.576C318.396 428.763 319.466 429.619 320.767 429.985L337.486 434.691C339.845 435.355 342.369 434.165 343.356 431.924C345.573 426.89 351.17 418.937 363.742 422.244C373.322 424.768 375.311 432.77 375.721 436.097C376.391 441.509 374.259 447.106 370.02 451.065C363.506 457.147 355.006 455.966 350.519 454.722C345.358 453.289 339.987 456.294 338.544 461.419L333.48 479.41C332.74 482.038 334.276 484.776 336.904 485.516L353.194 490.101C355.822 490.841 358.56 489.304 359.3 486.676L360.364 482.897C360.389 482.806 360.468 482.744 360.565 482.738C364.62 482.481 372.653 481.367 380.898 476.774C391.425 470.913 398.565 461.531 402.123 448.894C407.215 430.809 400.958 418.39 394.813 411.158Z" fill="#FCC822"/>
<path d="M344.585 492.566L343.16 492.165C336.348 490.247 329.245 494.23 327.328 501.043C325.411 507.856 329.392 514.959 336.206 516.876L337.63 517.276C344.443 519.195 351.546 515.212 353.463 508.399C355.38 501.585 351.399 494.484 344.585 492.566Z" fill="#FCC822"/>
<path d="M430.717 311.513C425.798 308.819 420.185 308.212 416.573 308.541C413.19 308.85 408.261 309.838 403.988 312.79C401.333 314.625 399.298 316.985 397.937 319.805C396.325 323.147 395.654 327.161 395.942 331.734C395.986 332.42 396.298 333.045 396.821 333.493C397.347 333.944 398.017 334.157 398.707 334.094L407.576 333.284C408.828 333.17 409.818 332.139 409.88 330.884C410.019 328.067 411.242 323.233 417.869 322.513C422.919 321.966 425.337 325.434 426.143 326.952C427.455 329.421 427.46 332.491 426.156 335.164C424.151 339.27 419.864 340.262 417.487 340.488C414.754 340.747 412.732 343.171 412.98 345.889L413.851 355.433C413.979 356.827 415.216 357.857 416.609 357.731L425.25 356.942C426.644 356.814 427.674 355.577 427.547 354.184L427.364 352.178C427.359 352.131 427.385 352.086 427.43 352.066C429.324 351.2 432.968 349.193 436.075 345.484C440.042 340.747 441.743 334.947 441.131 328.244C440.256 318.65 434.985 313.851 430.717 311.513Z" fill="black"/>
<path d="M421.581 359.7L420.825 359.769C417.211 360.1 414.54 363.307 414.869 366.922C415.199 370.536 418.407 373.207 422.022 372.877L422.778 372.809C426.391 372.478 429.063 369.27 428.733 365.656C428.403 362.041 425.194 359.37 421.581 359.7Z" fill="black"/>
<path d="M75.5467 107.765C72.2139 104.481 67.8495 102.714 64.876 102.154C62.0915 101.631 57.9111 101.299 53.8095 102.694C51.2617 103.56 49.0895 104.99 47.3542 106.943C45.2984 109.257 43.8449 112.324 43.0336 116.06C42.9121 116.621 43.0198 117.193 43.3378 117.673C43.6571 118.155 44.1453 118.478 44.7137 118.586L52.0154 119.958C53.0458 120.152 54.0762 119.55 54.4117 118.557C55.1654 116.328 57.25 112.729 62.7313 113.662C66.9079 114.375 68.0573 117.709 68.359 119.11C68.8485 121.391 68.1524 123.855 66.496 125.702C63.9507 128.54 60.2849 128.359 58.3255 127.997C56.0731 127.583 53.8984 129.065 53.4777 131.303L52.0004 139.16C51.785 140.307 52.5425 141.416 53.6893 141.631L60.8032 142.968C61.95 143.184 63.0593 142.426 63.2746 141.279L63.5851 139.629C63.5926 139.589 63.6239 139.56 63.664 139.554C65.3818 139.291 68.7622 138.512 72.1012 136.245C76.3643 133.349 79.0523 129.084 80.089 123.565C81.5739 115.666 78.4389 110.613 75.5467 107.765Z" fill="black"/>
<path d="M57.2275 144.345L56.6052 144.229C53.6305 143.669 50.7546 145.635 50.195 148.61C49.6353 151.585 51.601 154.46 54.5757 155.02L55.198 155.136C58.1727 155.696 61.0486 153.73 61.6082 150.756C62.1666 147.781 60.2022 144.905 57.2275 144.345Z" fill="black"/>
<path d="M417.504 110.274C412.595 107.561 406.986 106.931 403.373 107.246C399.989 107.542 395.056 108.51 390.772 111.446C388.11 113.268 386.065 115.621 384.693 118.437C383.068 121.772 382.381 125.782 382.651 130.358C382.691 131.044 383.002 131.67 383.522 132.121C384.047 132.574 384.716 132.79 385.405 132.729L394.277 131.954C395.529 131.846 396.523 130.818 396.591 129.563C396.741 126.746 397.983 121.918 404.612 121.224C409.665 120.697 412.069 124.175 412.869 125.696C414.171 128.17 414.164 131.241 412.849 133.908C410.829 138.007 406.538 138.981 404.159 139.197C401.425 139.446 399.393 141.862 399.631 144.581L400.465 154.127C400.586 155.522 401.819 156.556 403.214 156.435L411.858 155.68C413.252 155.558 414.287 154.325 414.165 152.93L413.99 150.925C413.986 150.877 414.012 150.832 414.058 150.812C415.956 149.954 419.606 147.963 422.729 144.265C426.714 139.545 428.438 133.751 427.852 127.045C427.016 117.449 421.762 112.627 417.504 110.274Z" fill="#FCC822"/>
<path d="M408.177 158.424L407.421 158.491C403.806 158.806 401.122 162.004 401.437 165.619C401.753 169.235 404.95 171.919 408.566 171.603L409.322 171.536C412.937 171.221 415.621 168.023 415.306 164.407C414.99 160.793 411.793 158.109 408.177 158.424Z" fill="#FCC822"/>
<path d="M150.762 398.776C144.618 395.883 137.791 395.562 133.452 396.227C129.386 396.849 123.503 398.407 118.557 402.291C115.484 404.702 113.198 407.704 111.762 411.214C110.061 415.37 109.545 420.271 110.231 425.777C110.334 426.603 110.757 427.336 111.423 427.839C112.091 428.345 112.916 428.554 113.745 428.426L124.404 426.793C125.907 426.563 127.028 425.243 127.011 423.724C126.973 420.309 128.094 414.377 136.05 413.019C142.113 411.986 145.291 415.999 146.377 417.774C148.145 420.661 148.377 424.371 146.997 427.697C144.877 432.808 139.769 434.323 136.914 434.771C133.63 435.287 131.365 438.363 131.864 441.631L133.621 453.099C133.877 454.774 135.449 455.927 137.124 455.672L147.508 454.082C149.183 453.825 150.336 452.254 150.081 450.579L149.711 448.169C149.703 448.111 149.731 448.055 149.784 448.027C152.01 446.842 156.264 444.149 159.746 439.436C164.191 433.42 165.818 426.285 164.585 418.229C162.816 406.699 156.092 401.287 150.762 398.776Z" fill="#FCC822"/>
<path d="M143.272 457.683L142.363 457.822C138.02 458.486 135.028 462.562 135.694 466.904C136.36 471.246 140.434 474.239 144.776 473.573L145.685 473.434C150.028 472.769 153.021 468.695 152.354 464.352C151.69 460.01 147.614 457.018 143.272 457.683Z" fill="#FCC822"/>
<path d="M57.3026 181.749C48.6638 177.7 39.0722 177.265 32.975 178.211C27.2659 179.096 19.0027 181.298 12.0629 186.766C7.75222 190.162 4.54835 194.385 2.53889 199.319C0.158839 205.164 -0.552301 212.05 0.424259 219.785C0.570743 220.945 1.1667 221.973 2.1032 222.678C3.04345 223.387 4.20279 223.678 5.36715 223.498L20.3373 221.178C22.4494 220.851 24.0207 218.993 23.9932 216.857C23.9293 212.06 25.4906 203.724 36.6634 201.795C45.1795 200.329 49.6541 205.959 51.1853 208.449C53.6768 212.502 54.0111 217.712 52.0818 222.39C49.1158 229.575 41.9443 231.716 37.9317 232.353C33.3181 233.086 30.1442 237.414 30.8554 242.004L33.3519 258.113C33.7162 260.466 35.9272 262.083 38.2797 261.719L52.8655 259.459C55.218 259.095 56.8356 256.884 56.4713 254.531L55.9467 251.147C55.9342 251.066 55.9742 250.988 56.0481 250.948C59.1731 249.277 65.1426 245.483 70.0229 238.854C76.2529 230.39 78.5215 220.362 76.7687 209.046C74.2585 192.849 64.7971 185.262 57.3026 181.749Z" fill="#FCC822"/>
<path d="M46.9273 264.528L45.6515 264.726C39.5518 265.672 35.3576 271.403 36.3028 277.503C37.2481 283.603 42.9797 287.797 49.0795 286.852L50.3553 286.654C56.455 285.708 60.6492 279.977 59.7039 273.877C58.7587 267.777 53.027 263.583 46.9273 264.528Z" fill="#FCC822"/>
<path d="M329.914 136.155C300.353 116.272 265.206 109.188 242.17 109.188C220.597 109.188 188.849 112.591 160.113 128.799C142.267 138.867 128.028 152.62 117.791 169.678C105.665 189.883 99.1019 214.883 98.2844 243.986C98.1617 248.351 99.7742 252.483 102.827 255.622C105.893 258.775 110.003 260.512 114.403 260.512H170.969C178.951 260.512 185.813 254.556 186.928 246.66C189.437 228.922 199.966 199.054 242.297 198.324C274.545 197.771 287.851 221.115 292.075 231.18C298.95 247.558 297.207 266.98 287.41 283.133C272.357 307.95 244.667 311.75 229.501 311.805C212.061 311.869 197.871 326.028 197.871 343.367V404.236C197.871 413.125 205.102 420.357 213.992 420.357H269.105C277.994 420.357 285.225 413.125 285.225 404.236V391.447C285.225 391.14 285.417 390.875 285.712 390.771C298.197 386.39 322.397 375.806 344.195 354.134C372.022 326.468 386.13 290.76 386.13 248.003C386.132 186.811 355.56 153.405 329.914 136.155Z" fill="#FCB933"/>
<path d="M240.162 448.751H244.611C266.498 448.751 284.305 466.558 284.305 488.445C284.305 510.333 266.498 528.14 244.611 528.14H240.162C218.275 528.14 200.468 510.333 200.468 488.445C200.468 466.557 218.275 448.751 240.162 448.751Z" fill="#263238"/>
<path d="M213.78 432.127H268.871C277.756 432.127 284.985 425.124 284.985 416.517V391.631C284.985 391.334 285.177 391.076 285.472 390.976C291.984 388.763 301.095 384.704 311.402 378.367C276.204 378.121 212.045 377.761 197.664 378.286V416.517C197.666 425.124 204.895 432.127 213.78 432.127Z" fill="#263238"/>
<path d="M259.154 156.38L223.801 53.7147C216.335 28.0087 195.153 10.9277 169.663 19.1032L167.352 19.9959C144.091 28.9827 131.62 54.3207 138.709 78.2288C145.303 100.473 152.875 124.966 157.49 136.484C167.043 160.328 192.052 153.635 192.052 153.635C192.107 153.616 197.618 169.528 200.028 176.671L212.976 189.465L218.325 183.622L259.154 156.38Z" fill="#FFBF9D"/>
<path d="M192.05 153.635C192.05 153.635 207.494 148.687 219.682 132.36C219.682 132.36 219.136 153.272 194.395 160.351L192.05 153.635Z" fill="#FF9A6C"/>
<path d="M156.005 94.4409C156.639 96.2726 158.713 97.2454 160.638 96.6181C162.558 95.9921 163.606 94.0027 162.973 92.171C162.339 90.3393 160.265 89.364 158.343 89.99C156.418 90.616 155.372 92.6092 156.005 94.4409Z" fill="#263238"/>
<path d="M147.497 85.6794C148.093 85.9611 149.943 83.0415 153.63 81.6292C157.291 80.1644 160.725 81.0157 160.949 80.4098C161.068 80.1343 160.326 79.4958 158.819 79.0939C157.331 78.6895 155.035 78.6219 152.745 79.5183C150.456 80.4173 148.854 82.0061 148.079 83.2994C147.283 84.6052 147.21 85.5605 147.497 85.6794Z" fill="#263238"/>
<path d="M186.789 82.2339C187.387 82.5156 189.242 79.596 192.924 78.1837C196.585 76.7201 200.019 77.5702 200.245 76.9643C200.362 76.6888 199.625 76.0503 198.113 75.6497C196.625 75.244 194.329 75.1777 192.039 76.0728C189.75 76.973 188.148 78.5618 187.372 79.8539C186.579 81.1597 186.505 82.115 186.789 82.2339Z" fill="#263238"/>
<path d="M181.64 105.983C181.576 105.768 179.135 106.256 175.244 107.214C174.266 107.48 173.304 107.638 172.897 107.057C172.414 106.464 172.415 105.298 172.448 104.027C172.453 101.411 172.457 98.6676 172.462 95.7943C172.385 84.1094 171.942 74.6493 171.471 74.6556C171.001 74.6643 170.681 84.1395 170.758 95.8243C170.8 98.6977 170.837 101.436 170.877 104.055C170.934 105.261 170.79 106.709 171.814 107.934C172.339 108.538 173.227 108.781 173.891 108.711C174.566 108.662 175.098 108.468 175.574 108.317C179.385 107.076 181.706 106.198 181.64 105.983Z" fill="#263238"/>
<path d="M178.276 61.5334C179.14 62.2796 182.33 59.9108 186.643 58.138C190.921 56.2763 194.842 55.6365 194.909 54.4972C194.922 53.9613 193.862 53.3979 192.037 53.2289C190.225 53.0536 187.66 53.3591 185.082 54.4471C182.508 55.5389 180.502 57.1677 179.365 58.59C178.216 60.0172 177.88 61.1703 178.276 61.5334Z" fill="#263238"/>
<path d="M143.145 74.9197C144.225 75.4756 146.917 73.49 150.528 72.1103C154.096 70.6242 157.431 70.2035 157.813 69.0617C157.965 68.5208 157.171 67.8572 155.536 67.5555C153.921 67.25 151.471 67.419 149.003 68.4019C146.536 69.3884 144.66 70.9484 143.717 72.2743C142.755 73.6127 142.654 74.6343 143.145 74.9197Z" fill="#263238"/>
<path d="M228.305 71.0498C228.644 70.7156 242.885 59.8207 248.691 76.4021C254.495 92.9836 236.652 95.3912 236.455 94.9267C236.261 94.4609 228.305 71.0498 228.305 71.0498Z" fill="#FFBF9D"/>
<path d="M239.322 86.8713C239.376 86.7924 239.681 86.9715 240.249 87.0253C240.801 87.0766 241.672 86.9402 242.423 86.3129C243.95 85.0571 244.452 81.7594 243.485 78.7421C242.999 77.2184 242.179 75.8925 241.229 74.8897C240.297 73.8543 239.217 73.2809 238.279 73.4336C237.33 73.5388 236.891 74.285 236.852 74.8221C236.792 75.3629 237.013 75.6572 236.935 75.7173C236.903 75.7749 236.481 75.5633 236.375 74.8321C236.329 74.4778 236.385 74.0195 236.664 73.5651C236.948 73.1018 237.475 72.7325 238.113 72.5835C239.422 72.2242 240.985 72.9979 242.03 74.0972C243.147 75.1789 244.104 76.6575 244.649 78.369C245.712 81.7469 245.098 85.4728 242.943 87.0053C241.882 87.7189 240.787 87.7064 240.147 87.491C239.491 87.2607 239.275 86.9214 239.322 86.8713Z" fill="#FF9A6C"/>
<path d="M194.155 104.312C193.57 104.471 194.844 108.298 192.477 112.109C190.12 115.928 185.898 116.862 186.047 117.408C186.075 117.665 187.204 117.847 188.942 117.317C190.649 116.81 192.933 115.443 194.382 113.112C195.821 110.777 195.937 108.268 195.543 106.655C195.153 105.008 194.409 104.203 194.155 104.312Z" fill="#263238"/>
<path d="M97.3065 66.584C97.2264 65.516 97.6533 64.4618 98.3432 63.6418C99.8468 61.8514 102.085 61.2304 104.186 60.4517C109.415 58.5148 114.156 55.3323 118.006 51.3008C116.08 51.0479 114.198 50.5797 112.446 49.7421C108.826 48.0143 105.845 44.4649 105.81 40.4548C105.804 39.7023 105.947 38.861 106.551 38.4128C107.512 37.7029 108.826 38.4278 109.872 39.0025C113.311 40.8905 116.008 41.2711 119.558 39.6022C121.763 38.5655 123.798 37.2722 125.201 35.5194C125.246 35.4193 125.281 35.3141 125.328 35.2152C125.876 34.022 126.418 32.8765 126.958 31.7634C126.958 31.7597 126.96 31.7572 126.96 31.7534L126.959 31.7597C131.014 23.3801 134.865 17.2077 139.603 13.0411C146.545 6.93384 159.61 0.846635 168.824 0.0879252C178.04 -0.670785 188.026 3.50337 192.244 11.7315C195.566 6.06496 202.68 3.59727 209.258 3.88272L209.381 3.76879C216.603 3.79509 222.637 9.2901 226.836 15.1657C227.065 15.4875 227.283 15.818 227.507 16.1435C230.889 18.819 234.875 20.7258 239.113 21.5346C239.86 21.6774 240.727 21.8689 241.054 22.5563C241.378 23.2373 240.987 24.0336 240.554 24.6521C239.403 26.296 237.867 27.6506 236.122 28.6397C237.256 29.9881 238.477 31.2564 239.838 32.3995C240.995 33.371 242.372 34.5366 242.189 36.0352C242.048 37.1946 240.937 38.0422 239.79 38.2676C238.645 38.4917 237.465 38.2287 236.327 37.9683C237.647 39.4294 238.965 40.8917 240.285 42.3528C238.106 43.5748 235.636 44.2358 233.141 44.346C233.933 50.9453 236.902 62.6389 236.788 67.3414C232.417 68.9678 231.18 68.8663 229.22 70.385C226.687 72.3482 229.57 77.0419 225.329 76.9142C223.169 76.8491 217.713 70.673 216.393 68.9603C207.645 57.5984 201.394 44.3285 198.185 30.3537C194.529 28.4569 190.505 27.2725 186.405 26.8844L186.783 27.0422C179.179 27.076 170.699 27.4616 165.392 32.9078C161.275 37.132 160.167 43.3394 157.893 48.7818C153.585 59.097 147.058 66.0907 136.684 70.2561C138.312 77.9058 142.246 89.9688 144.294 96.9211L133.651 85.3113L133.666 85.3677C132.912 84.7329 132.24 84.0631 131.579 83.387L131.363 83.1867L131.353 83.1554C130.299 82.0674 129.273 80.9669 128.066 79.949C128.051 79.9766 128.036 80.0029 128.021 80.0304C125.472 84.5964 118.264 81.5278 119.78 76.5223C120.08 75.5295 120.525 74.583 121.112 73.7228C119.981 75.9051 117.728 77.554 115.271 77.6541C112.815 77.7543 110.305 76.1167 109.684 73.7379C109.259 72.114 109.89 70.3074 111.095 69.1819C108.189 70.4639 104.904 70.8908 101.776 70.3224C99.7241 69.9481 97.4843 68.9365 97.3065 66.584Z" fill="#263238"/>
<path d="M185.594 17.204C185.567 17.2841 186.836 17.4869 188.81 18.5711C190.768 19.6529 193.31 21.8414 195.369 25.3119C196.405 27.0321 197.375 29.0228 198.16 31.2564C198.956 33.4862 199.62 35.9413 200.337 38.5217C201.062 41.0996 201.82 43.8252 202.958 46.5382C203.526 47.8917 204.189 49.24 204.984 50.5409C205.775 51.8142 206.666 53.1863 208.129 54.0077C209.3 54.6825 210.84 54.6236 211.956 53.9526C213.093 53.3115 213.943 52.2862 214.422 51.1281C215.341 48.758 214.917 46.3104 214.586 44.1394L214.099 44.3798C215.575 45.916 217.067 47.4234 218.839 48.4212C220.595 49.4354 222.656 49.7884 224.462 49.3277C225.362 49.0986 226.192 48.6504 226.808 48.0093C227.441 47.3683 227.774 46.5395 227.918 45.737C228.04 44.9282 227.966 44.1131 227.675 43.4057C227.381 42.7009 226.858 42.1162 226.231 41.7944L226.055 42.1149C228.675 43.586 231.053 44.0355 232.641 44.1882C233.443 44.2634 234.06 44.2584 234.477 44.2471C234.893 44.2258 235.105 44.2033 235.105 44.187C235.104 44.1682 234.889 44.1582 234.477 44.1457C234.064 44.1257 233.451 44.0969 232.663 43.9929C231.099 43.7826 228.774 43.2818 226.237 41.7994L226.061 42.1187C227.181 42.6959 227.764 44.197 227.492 45.6656C227.351 46.393 227.04 47.1354 226.478 47.6876C225.924 48.251 225.167 48.6554 224.342 48.8557C222.678 49.2626 220.754 48.9271 219.102 47.9568C217.423 46.9977 215.976 45.5291 214.509 43.9867L213.886 43.3319L214.022 44.2283C214.351 46.398 214.718 48.7605 213.873 50.904C213.445 51.9419 212.661 52.8721 211.665 53.4305C210.675 54.0102 209.429 54.0552 208.413 53.4806C207.139 52.7744 206.267 51.4849 205.491 50.2304C204.714 48.9621 204.062 47.6438 203.5 46.3129C202.374 43.6486 201.608 40.9443 200.871 38.374C200.14 35.7986 199.456 33.3397 198.628 31.0886C197.812 28.835 196.805 26.8243 195.73 25.0903C193.592 21.5935 190.949 19.4025 188.922 18.3683C186.876 17.3267 185.594 17.204 185.594 17.204Z" fill="#455A64"/>
<path d="M118.886 67.235C118.882 67.2437 118.969 67.2776 119.139 67.3314C119.344 67.3927 119.595 67.4679 119.9 67.5593C120.234 67.6644 120.653 67.7771 121.16 67.856C121.663 67.9486 122.243 68.0726 122.909 68.1126C125.538 68.3893 129.524 68.1802 133.948 66.3223C138.332 64.4944 143.142 61.0188 146.679 55.7604C150.297 50.5697 152.74 43.9391 154.146 36.8378C154.876 33.2796 155.252 29.7627 155.858 26.4249C156.452 23.0883 157.285 19.9045 158.676 17.1326C160.038 14.3582 161.923 11.9994 164.17 10.4294C165.28 9.62312 166.502 9.09853 167.705 8.70666C168.923 8.34858 170.143 8.19083 171.307 8.16579C173.645 8.13074 175.738 8.69163 177.436 9.42906C179.142 10.1752 180.449 11.138 181.423 12.0144C183.311 13.8549 183.877 15.2646 183.956 15.2095C183.966 15.2045 183.929 15.1219 183.847 14.9616C183.745 14.7713 183.622 14.541 183.47 14.2593C183.124 13.652 182.511 12.8094 181.585 11.8454C180.62 10.9264 179.305 9.91483 177.572 9.12107C175.848 8.33732 173.711 7.73135 171.302 7.74011C170.102 7.75263 168.841 7.90162 167.572 8.26095C166.322 8.65282 165.037 9.19493 163.883 10.02C161.542 11.6288 159.586 14.0539 158.179 16.8847C156.74 19.7167 155.884 22.9594 155.278 26.3197C154.661 29.6851 154.28 33.1944 153.556 36.7201C152.162 43.7688 149.759 50.3193 146.222 55.4462C142.763 60.642 138.079 64.0762 133.781 65.9317C129.45 67.8096 125.534 68.0813 122.929 67.8798C120.301 67.6682 118.905 67.1498 118.886 67.235Z" fill="#455A64"/>
<path d="M112.924 57.3555C112.916 57.3968 113.301 57.5007 114.007 57.6547C114.711 57.8212 115.752 57.9665 117.043 58.0554C118.335 58.1543 119.885 58.1267 121.593 57.9577C123.297 57.7586 125.157 57.4006 127.05 56.8121C128.938 56.2024 130.665 55.4237 132.173 54.6061C133.667 53.7598 134.949 52.8921 135.949 52.0671C136.954 51.2508 137.721 50.5334 138.201 49.9913C138.69 49.4579 138.944 49.1524 138.914 49.1236C138.833 49.0435 137.736 50.2054 135.689 51.7303C134.671 52.5015 133.388 53.3166 131.908 54.1191C130.414 54.8941 128.717 55.6415 126.866 56.2387C125.011 56.8146 123.193 57.1815 121.525 57.4081C119.854 57.6034 118.334 57.6748 117.059 57.6309C114.509 57.5621 112.944 57.2441 112.924 57.3555Z" fill="#455A64"/>
<path d="M158.331 230.905C158.115 230.967 160.953 245.18 163.733 259.922H164.612C161.832 245.18 158.549 230.842 158.331 230.905Z" fill="#263238"/>
<path d="M170.327 260.635C178.362 260.635 185.759 254.845 186.882 246.96C189.407 229.247 199.515 199.266 242.125 198.537C274.586 197.983 288.248 220.96 292.075 231.179C298.151 247.401 297.396 267.092 287.535 283.222C272.384 308.003 244.51 311.796 229.245 311.853C211.689 311.916 197.406 326.054 197.406 343.368V409.552L285.339 407.898V391.378C285.339 391.071 285.532 390.807 285.83 390.703C296.541 386.975 313.523 379.907 332.631 364.499L326.907 288.278C326.907 288.278 343.641 256.115 342.812 248.878C335.235 182.769 312.752 145.362 303.614 141.873C293.353 137.957 253.74 139.863 253.74 139.863C253.74 139.863 236.632 171.563 212.629 175.074C199.274 177.029 194.398 160.351 194.398 160.351L163.375 178.539C141.296 189.675 137.011 233.004 136.606 260.635H170.327Z" fill="#455A64"/>
<g opacity="0.3">
<path d="M272.23 299.577C289.954 304.089 307.428 309.797 325.153 314.309C326.468 314.643 327.869 315.03 328.756 316.057C330.061 317.568 329.768 319.862 329.183 321.771C327.319 327.864 323.298 333.13 318.511 337.336C314.655 340.724 310.035 343.582 304.917 343.981C299.218 344.426 293.739 341.783 288.92 338.708C276.598 330.844 266.082 319.353 259.474 306.315C259.474 306.315 263.63 304.605 266.81 302.905C269.763 301.326 272.23 299.577 272.23 299.577Z" fill="black"/>
</g>
<path d="M291.712 231.638C298.8 247.992 297.002 267.385 286.903 283.515C281.298 292.468 274.161 298.858 266.378 303.145C274.761 312.264 283.271 320.299 291.683 326.269C300.736 332.693 321.602 330.867 329.514 316.803C339.274 299.45 340.091 255.12 340.091 255.12C341.945 228.394 341.945 228.394 341.945 228.394L287.361 220.034L286.923 221.53C289.264 225.04 290.644 229.174 291.712 231.638Z" fill="#FFBF9D"/>
<path d="M196.666 220.408L193.559 225.307C191.197 226.937 188.948 226.042 187.488 223.013L153.887 171.869L162.072 166.664L199.184 215.709C199.184 215.709 199.708 218.31 196.666 220.408Z" fill="#455A64"/>
<path d="M119.036 170.992C112.458 167.28 106.941 161.554 103.526 154.196C99.321 145.134 98.8965 134.976 102.332 125.593C105.768 116.211 112.65 108.727 121.714 104.522C140.423 95.8406 162.707 103.999 171.39 122.708C175.595 131.772 176.018 141.93 172.584 151.313C169.149 160.695 162.267 168.177 153.203 172.384C141.851 177.65 129.182 176.718 119.036 170.992ZM154.647 108.093C145.179 102.749 133.36 101.88 122.768 106.794C114.312 110.718 107.89 117.7 104.685 126.454C101.479 135.208 101.875 144.687 105.799 153.143C109.723 161.6 116.704 168.022 125.459 171.227C134.213 174.432 143.691 174.037 152.148 170.113C160.604 166.189 167.027 159.207 170.23 150.453C173.437 141.699 173.04 132.221 169.116 123.764C165.932 116.899 160.783 111.556 154.647 108.093Z" fill="#263238"/>
<path d="M120.63 169.423C114.052 165.711 108.534 159.985 105.12 152.627C100.915 143.565 100.49 133.407 103.926 124.024C107.361 114.642 114.244 107.159 123.308 102.953C142.017 94.2719 164.301 102.43 172.984 121.141C177.189 130.204 177.612 140.363 174.178 149.745C170.744 159.128 163.86 166.611 154.797 170.816C143.444 176.081 130.775 175.15 120.63 169.423ZM156.239 106.523C146.772 101.179 134.953 100.31 124.361 105.224C115.905 109.148 109.482 116.13 106.277 124.884C103.072 133.638 103.468 143.117 107.391 151.573C111.315 160.03 118.296 166.452 127.052 169.657C135.806 172.862 145.283 172.467 153.74 168.543C162.196 164.619 168.619 157.637 171.823 148.883C175.028 140.129 174.633 130.65 170.709 122.194C167.525 115.329 162.377 109.986 156.239 106.523Z" fill="#455A64"/>
<path d="M170.163 137.408C170.149 137.408 170.137 137.195 170.124 136.793C170.094 136.392 170.142 135.798 170.053 135.039C169.968 133.518 169.627 131.323 168.813 128.727C168.414 127.426 167.847 126.045 167.176 124.593C166.449 123.169 165.651 121.652 164.618 120.177C163.61 118.69 162.452 117.19 161.105 115.77C159.768 114.345 158.286 112.95 156.615 111.721C154.952 110.483 153.203 109.451 151.437 108.612C149.66 107.792 147.87 107.182 146.136 106.715C142.648 105.838 139.381 105.596 136.666 105.755C133.948 105.905 131.77 106.334 130.302 106.743C129.557 106.911 129.005 107.132 128.615 107.234C128.23 107.349 128.024 107.404 128.019 107.39C128.014 107.378 128.21 107.298 128.588 107.157C128.97 107.031 129.517 106.784 130.259 106.593C131.721 106.136 133.907 105.661 136.649 105.472C139.389 105.276 142.693 105.488 146.227 106.357C147.985 106.821 149.802 107.43 151.603 108.257C153.395 109.102 155.171 110.146 156.857 111.4C158.548 112.645 160.045 114.058 161.393 115.503C162.751 116.942 163.915 118.462 164.926 119.972C165.961 121.466 166.757 123.005 167.477 124.45C168.142 125.922 168.699 127.323 169.086 128.643C169.872 131.276 170.173 133.498 170.21 135.031C170.277 135.796 170.203 136.393 170.207 136.796C170.19 137.198 170.177 137.408 170.163 137.408Z" fill="white"/>
<path d="M131.131 167.857C131.157 167.764 132.865 168.4 135.745 168.793C136.107 168.837 136.485 168.882 136.877 168.93C137.27 168.973 137.685 168.975 138.11 169.001C138.962 169.07 139.874 169.025 140.832 169.006C142.747 168.892 144.841 168.602 146.983 168.04C149.119 167.449 151.076 166.646 152.789 165.783C153.626 165.318 154.438 164.898 155.14 164.411C155.494 164.175 155.852 163.967 156.171 163.73C156.486 163.492 156.789 163.263 157.081 163.044C159.373 161.256 160.531 159.849 160.6 159.915C160.621 159.933 160.331 160.278 159.785 160.891C159.517 161.202 159.178 161.57 158.742 161.959C158.313 162.35 157.847 162.829 157.257 163.267C156.968 163.496 156.666 163.734 156.353 163.982C156.037 164.227 155.68 164.445 155.324 164.69C154.622 165.196 153.807 165.632 152.962 166.113C151.236 167.005 149.254 167.83 147.09 168.429C144.918 169 142.79 169.281 140.851 169.377C139.879 169.385 138.955 169.418 138.094 169.334C137.663 169.3 137.247 169.291 136.848 169.239C136.453 169.183 136.072 169.127 135.708 169.075C134.978 168.994 134.336 168.813 133.766 168.689C133.195 168.573 132.716 168.425 132.327 168.29C131.546 168.036 131.122 167.883 131.131 167.857Z" fill="white"/>
<path d="M156.867 143.9C156.788 143.977 151.911 139.096 145.978 133C140.042 126.901 135.296 121.897 135.375 121.82C135.454 121.742 140.329 126.622 146.265 132.721C152.199 138.817 156.946 143.823 156.867 143.9Z" fill="white"/>
<path d="M151.11 153.698C151.1 153.707 150.977 153.588 150.754 153.351C150.506 153.081 150.188 152.735 149.795 152.306C148.939 151.352 147.756 150.036 146.309 148.426C143.369 145.147 139.295 140.63 134.741 135.689C130.185 130.748 126.012 126.32 122.983 123.124C121.495 121.552 120.279 120.266 119.399 119.334C119.004 118.907 118.684 118.562 118.435 118.294C118.219 118.052 118.108 117.922 118.118 117.912C118.129 117.902 118.257 118.015 118.493 118.238C118.756 118.493 119.093 118.821 119.511 119.225C120.39 120.089 121.645 121.354 123.187 122.928C126.269 126.075 130.477 130.473 135.036 135.417C139.592 140.36 143.634 144.91 146.521 148.239C147.965 149.903 149.123 151.258 149.913 152.204C150.284 152.654 150.583 153.017 150.816 153.299C151.019 153.551 151.12 153.688 151.11 153.698Z" fill="white"/>
<g opacity="0.3">
<path d="M120.611 107.886L166.538 157.776C166.538 157.776 162.821 162.975 159.416 165.238L112.52 114.182C112.52 114.182 115.9 110.108 120.611 107.886Z" fill="white"/>
</g>
<g opacity="0.3">
<path d="M108.571 119.934L153.742 168.542C153.742 168.542 154.161 168.771 151.049 169.557L107.295 122.402C107.295 122.402 107.524 121.22 108.571 119.934Z" fill="white"/>
</g>
<path d="M227.476 200.132C217.828 192.385 194.184 173.436 193.103 172.931C191.744 172.295 170.934 164.902 166.948 167.277C162.961 169.652 152.274 183.067 152.274 183.067C152.274 183.067 153.29 191.411 162.611 185.44C169.723 180.885 170.826 180.178 170.952 180.097C170.944 180.102 170.938 180.106 170.938 180.106L180.847 182.421C180.847 182.421 168.761 187.469 166.204 190.123C163.647 192.778 159.605 202.94 162.126 205.28C164.648 207.62 167.576 207.82 167.576 207.82C167.576 207.82 162.587 214.907 171.437 219.185C171.437 219.185 172.729 225.142 177.095 227.477C181.461 229.811 189.595 228.985 189.595 228.985C189.595 228.985 193.367 226.754 190.565 223.056C187.763 219.358 182.594 218.846 182.594 218.846L189 215.108C189 215.108 192.333 216.129 197.271 219.944C197.271 219.944 203.121 212.455 208.961 208.222C215.517 203.472 227.476 200.132 227.476 200.132Z" fill="#FFBF9D"/>
<path d="M186.463 203.279C186.459 203.251 186.12 203.257 185.511 203.336C184.903 203.413 184.029 203.587 182.98 203.923C180.893 204.577 178.093 206.024 175.798 208.519C173.502 211.016 172.295 213.926 171.818 216.061C171.571 217.134 171.471 218.019 171.445 218.633C171.417 219.245 171.44 219.584 171.469 219.585C171.559 219.593 171.578 218.231 172.142 216.144C172.693 214.069 173.918 211.265 176.146 208.84C178.376 206.416 181.068 204.961 183.089 204.238C185.122 203.501 186.478 203.368 186.463 203.279Z" fill="#FF9A6C"/>
<path d="M186.888 192.496C186.885 192.463 186.524 192.491 185.872 192.567C185.545 192.601 185.147 192.655 184.692 192.76C184.237 192.86 183.711 192.947 183.15 193.127C182.013 193.427 180.695 193.92 179.286 194.582C177.891 195.272 176.413 196.148 174.981 197.237C173.561 198.344 172.335 199.55 171.312 200.723C170.311 201.916 169.499 203.064 168.918 204.087C168.602 204.583 168.383 205.07 168.17 205.484C167.952 205.897 167.798 206.268 167.681 206.575C167.44 207.186 167.322 207.526 167.352 207.539C167.439 207.576 167.968 206.224 169.203 204.26C169.811 203.273 170.639 202.164 171.639 201.008C172.662 199.871 173.874 198.698 175.267 197.612C176.673 196.542 178.29 195.339 179.651 194.639C181.024 193.967 182.133 193.783 183.243 193.446C185.461 192.756 186.903 192.589 186.888 192.496Z" fill="#FF9A6C"/>
<path d="M188.699 180.111C188.711 180.06 188.212 179.866 187.353 179.808C186.499 179.747 185.286 179.881 184.069 180.395C182.422 181.099 181.843 181.785 181.366 182.352C180.811 183.01 180.603 183.504 180.65 183.53C180.76 183.629 181.909 181.798 184.254 180.831C186.577 179.816 188.692 180.259 188.699 180.111Z" fill="#FF9A6C"/>
<path d="M299.764 140.875C299.764 140.875 330.3 143.805 339.994 170.334C347.688 191.392 351.868 254.476 349.94 255.762L296.026 254.038C295.317 238.655 291.175 226.794 285.368 219.12L299.764 140.875Z" fill="#455A64"/>
<path d="M296.853 254.038C296.878 254 297.253 254.212 297.911 254.628C298.571 255.039 299.498 255.677 300.618 256.502C302.859 258.147 305.826 260.608 308.822 263.619C311.823 266.628 314.279 269.593 315.965 271.8C316.805 272.907 317.464 273.817 317.894 274.464C318.327 275.109 318.55 275.478 318.514 275.505C318.434 275.563 317.371 274.216 315.604 272.087C313.834 269.961 311.337 267.065 308.36 264.079C305.386 261.09 302.493 258.595 300.336 256.865C298.181 255.133 296.795 254.122 296.853 254.038Z" fill="#FF9A6C"/>
<path d="M290.431 189.147C290.609 189.177 289.62 195.911 288.221 204.187C286.823 212.465 285.546 219.15 285.368 219.12C285.19 219.09 286.18 212.356 287.578 204.078C288.976 195.802 290.254 189.117 290.431 189.147Z" fill="#263238"/>
<path d="M222.579 378.327C222.578 378.305 222.886 378.258 223.474 378.192C224.128 378.126 224.984 378.039 226.052 377.932C228.365 377.713 231.586 377.408 235.535 377.034C243.54 376.265 254.589 375.111 266.76 373.575C278.934 372.032 289.924 370.398 297.868 369.15C301.786 368.529 304.981 368.022 307.274 367.658C308.335 367.496 309.186 367.367 309.835 367.268C310.422 367.187 310.731 367.155 310.735 367.176C310.739 367.198 310.437 367.273 309.857 367.397C309.214 367.526 308.37 367.697 307.317 367.908C305.11 368.341 301.906 368.924 297.941 369.606C290.012 370.972 279.024 372.68 266.84 374.223C254.659 375.762 243.593 376.844 235.574 377.495C231.563 377.822 228.317 378.056 226.07 378.186C224.998 378.243 224.138 378.289 223.482 378.324C222.892 378.347 222.58 378.35 222.579 378.327Z" fill="#263238"/>
<path d="M217.813 370.268C217.811 370.223 218.603 370.154 220.035 370.067C221.574 369.985 223.621 369.876 226.101 369.744C231.322 369.476 238.347 369.116 246.109 368.718C253.872 368.269 260.894 367.862 266.114 367.559C268.594 367.42 270.64 367.305 272.178 367.218C273.611 367.148 274.406 367.131 274.408 367.176C274.412 367.221 273.624 367.324 272.197 367.471C270.77 367.62 268.703 367.808 266.146 368.018C261.033 368.442 253.963 368.941 246.144 369.369C238.328 369.795 231.247 370.068 226.119 370.204C223.554 370.273 221.479 370.312 220.044 370.32C218.608 370.33 217.814 370.313 217.813 370.268Z" fill="#263238"/>
<path d="M131.944 256.116C132.142 255.349 132.465 254.626 132.92 253.975C133.821 252.682 135.187 251.697 136.733 251.344C139.302 250.758 142.181 251.961 143.57 254.201C143.478 252.493 144.826 250.902 146.476 250.451C148.125 250 149.406 250.636 150.722 251.728C152.038 252.82 152.374 253.689 152.909 255.314C154.222 252.364 160.976 252.725 161.797 254.938C161.797 254.938 167.608 248.578 170.58 251.705C171.814 253.005 171.285 254.998 170.467 256.995C169.375 259.661 168.657 260.771 167.229 263.707L161.729 264.008C161.266 265.729 160.291 272.729 160.084 274.499C159.878 276.27 159.523 278.072 158.582 279.586C157.64 281.1 156.004 282.284 154.221 282.26C152.438 282.235 150.683 280.708 150.788 278.928C150.414 280.399 149.788 281.85 148.704 282.911C147.619 283.973 146.014 284.585 144.546 284.202C143.077 283.819 141.913 282.283 142.211 280.796C140.25 282.154 137.352 280.947 136.107 278.913C134.862 276.878 134.831 274.349 134.908 271.964C134.975 269.851 135.167 267.479 134.334 265.479C134.203 265.163 133.978 264.89 133.901 264.555C133.789 264.058 133.864 263.494 133.829 262.985C133.751 261.877 133.547 260.772 133.166 259.727C133.082 259.498 132.991 259.271 132.89 259.048C132.623 258.456 132.229 257.955 131.927 257.389C131.86 257.266 131.804 257.143 131.788 257.001C131.754 256.711 131.873 256.389 131.944 256.116Z" fill="#FFBF9D"/>
<path d="M125.757 253.061C124.287 253.009 122.686 253.313 121.704 254.408C120.541 255.708 120.273 258.818 120.406 260.557C122.444 260.941 123.532 260.488 125.57 260.873C126 260.954 126.359 260.845 126.715 261.098C127.655 261.765 127.502 264.014 127.88 265.103C128.536 266.992 130.957 267.915 132.832 267.22C134.708 266.525 135.914 264.531 136.01 262.533C136.105 260.536 135.226 258.581 133.939 257.051C131.928 254.661 128.879 253.174 125.757 253.061Z" fill="#FFBF9D"/>
<path d="M160.469 271.58C160.261 271.536 161.1 267.805 161.631 263.164C161.886 260.843 161.945 258.73 161.853 257.208C161.775 255.686 161.596 254.749 161.697 254.725C161.771 254.704 162.113 255.617 162.313 257.167C162.526 258.713 162.538 260.879 162.279 263.234C162.026 265.59 161.585 267.686 161.222 269.187C160.852 270.688 160.554 271.598 160.469 271.58Z" fill="#FF9A6C"/>
<path d="M150.542 279.592C150.45 279.572 150.686 278.216 151.086 276.037C151.483 273.856 152.043 270.846 152.466 267.501C152.889 264.154 153.041 261.104 152.995 258.898C152.963 256.691 152.803 255.327 152.908 255.312C152.98 255.3 153.303 256.648 153.456 258.879C153.62 261.108 153.541 264.205 153.113 267.582C152.686 270.957 152.051 273.97 151.538 276.132C151.02 278.294 150.627 279.612 150.542 279.592Z" fill="#FF9A6C"/>
<path d="M142.144 281.023C142.047 280.997 142.394 279.501 142.832 277.066C143.272 274.632 143.758 271.247 143.966 267.482C144.168 263.716 144.054 260.298 143.881 257.83C143.709 255.361 143.528 253.836 143.628 253.821C143.673 253.815 143.768 254.188 143.903 254.872C144.044 255.554 144.195 256.551 144.34 257.789C144.633 260.263 144.822 263.715 144.618 267.518C144.408 271.32 143.845 274.731 143.285 277.157C143.007 278.372 142.747 279.346 142.534 280.009C142.323 280.674 142.187 281.035 142.144 281.023Z" fill="#FF9A6C"/>
<path d="M131.072 256.507C131.101 256.44 131.825 256.651 132.787 257.373C133.744 258.083 134.895 259.366 135.571 261.09C136.246 262.811 136.299 264.555 135.941 265.732C135.576 266.941 134.816 267.362 134.791 267.285C134.718 267.213 135.285 266.719 135.494 265.619C135.707 264.538 135.591 262.925 134.964 261.33C134.336 259.727 133.325 258.491 132.492 257.728C131.655 256.954 131.022 256.601 131.072 256.507Z" fill="#FF9A6C"/>
<path d="M268.152 79.7174L279.436 81.5979C284.984 88.2285 292.577 93.3028 301.686 95.7267C323.167 101.443 345.895 89.6482 353.63 68.8088C362.568 44.7291 348.918 18.138 323.907 11.4999C302.675 5.86464 280.209 17.3016 272.243 37.7743C268.291 47.9342 268.406 58.5749 271.718 68.0075L271.704 67.9875L268.152 79.7174Z" fill="white"/>
<path d="M268.152 79.7174C268.152 79.7174 268.21 79.472 268.352 78.9712C268.504 78.4441 268.719 77.6979 268.998 76.7289C269.59 74.7082 270.456 71.761 271.574 67.9499L271.651 67.6857L271.809 67.9123L271.823 67.9324L271.589 68.0513C269.786 62.9557 268.251 55.6866 269.533 47.1117C270.155 42.8449 271.524 38.3289 273.73 33.8493C275.972 29.3921 279.167 25.0402 283.3 21.2667C287.445 17.5157 292.542 14.3795 298.309 12.3362C304.062 10.3055 310.502 9.2901 317.044 9.98996C323.573 10.6322 330.16 12.807 336.062 16.4453C341.994 20.0498 347.058 25.3307 350.685 31.5706C352.603 34.6881 353.884 38.106 354.978 41.5127C355.227 42.3729 355.389 43.2543 355.598 44.1206C355.768 44.9945 356.052 45.8459 356.126 46.7323C356.233 47.6125 356.339 48.4901 356.445 49.3653L356.597 50.6761L356.618 51.9919C356.874 59.0031 355.375 65.849 352.654 71.8862C349.955 77.9583 345.77 83.0477 341.07 87.0165C336.343 90.9854 331.004 93.7986 325.626 95.4675C320.236 97.1189 314.829 97.6523 309.826 97.3105C308.58 97.1652 307.356 97.0225 306.151 96.8823C304.952 96.7133 303.799 96.3965 302.653 96.1674C300.368 95.6716 298.235 94.9204 296.234 94.1129C288.2 90.8138 282.752 85.7896 279.336 81.6818L279.414 81.7256C275.779 81.0871 272.955 80.5913 271.013 80.2495C270.084 80.0817 269.37 79.9528 268.862 79.8614C268.382 79.7712 268.152 79.7174 268.152 79.7174C268.152 79.7174 268.421 79.7474 268.918 79.8213C269.436 79.9002 270.164 80.0116 271.109 80.1568C273.038 80.4611 275.844 80.903 279.456 81.4714L279.503 81.479L279.534 81.5165C282.974 85.5642 288.417 90.5046 296.392 93.7272C298.378 94.516 300.494 95.2497 302.758 95.7292C303.894 95.9495 305.036 96.2588 306.223 96.4203C307.415 96.5543 308.627 96.6895 309.859 96.8284C314.806 97.1452 320.147 96.5981 325.466 94.9504C330.772 93.2853 336.037 90.4933 340.69 86.5658C345.319 82.6396 349.437 77.6153 352.087 71.627C354.76 65.6725 356.23 58.923 355.972 52.017L355.951 50.7199L355.801 49.4278C355.696 48.5665 355.59 47.7013 355.485 46.835C355.413 45.9623 355.13 45.1235 354.962 44.2634C354.755 43.4108 354.596 42.5419 354.351 41.6943C353.27 38.3389 352.011 34.9723 350.119 31.9011C346.546 25.7538 341.56 20.5493 335.719 16.9949C329.907 13.4067 323.415 11.2557 316.982 10.6135C310.537 9.91359 304.184 10.9039 298.504 12.8946C292.81 14.8978 287.77 17.9802 283.664 21.6723C279.571 25.387 276.399 29.6751 274.164 34.0721C271.964 38.4917 270.587 42.9563 269.949 47.178C268.633 55.6615 270.1 62.8831 271.838 67.9662L272.155 68.8939L271.604 68.0851L271.59 68.0651L271.825 68.0288C270.653 71.7873 269.747 74.6931 269.125 76.6851C268.815 77.6616 268.579 78.4103 268.41 78.9412C268.25 79.447 268.152 79.7174 268.152 79.7174Z" fill="#263238"/>
<path d="M322.042 33.525C318.703 31.3115 314.745 30.5427 312.155 30.5603C309.73 30.5765 306.161 30.9834 302.944 32.8276C300.944 33.9732 299.354 35.5307 298.216 37.4563C296.868 39.7374 296.149 42.5531 296.08 45.8259C296.07 46.3166 296.254 46.7799 296.6 47.1304C296.947 47.4822 297.411 47.6751 297.906 47.6713L304.266 47.6275C305.164 47.6212 305.93 46.9464 306.05 46.0575C306.318 44.0605 307.48 40.6952 312.239 40.58C315.866 40.4948 317.378 43.1078 317.861 44.2358C318.646 46.0725 318.466 48.2572 317.377 50.0814C315.703 52.8834 312.593 53.3316 310.888 53.3491C308.927 53.3691 307.342 54.9729 307.356 56.9223L307.402 63.767C307.408 64.7661 308.227 65.5736 309.228 65.5673L315.425 65.5248C316.424 65.5185 317.232 64.6997 317.225 63.6994L317.215 62.2608C317.215 62.2258 317.237 62.1957 317.269 62.1844C318.67 61.6824 321.382 60.4742 323.817 58.0203C326.925 54.8878 328.483 50.8626 328.451 46.055C328.401 39.1778 324.938 35.4443 322.042 33.525Z" fill="#FCB933"/>
<path d="M312.643 67.2688L312.101 67.2726C309.509 67.2901 307.415 69.4135 307.432 72.0051C307.45 74.5967 309.573 76.6913 312.165 76.6738L312.707 76.67C315.298 76.6525 317.393 74.5291 317.376 71.9375C317.358 69.3459 315.235 67.2513 312.643 67.2688Z" fill="#FCB933"/>
</svg>
